<?xml version="1.0" encoding="iso-8859-1"?>
<!-- Generator: Adobe Illustrator 19.0.0, SVG Export Plug-In . SVG Version: 6.00 Build 0)  -->
<svg xmlns="http://www.w3.org/2000/svg" xmlns:xlink="http://www.w3.org/1999/xlink" version="1.1" id="Capa_1" x="0px" y="0px" viewBox="0 0 470 470" style="enable-background:new 0 0 470 470;" xml:space="preserve" width="512px" height="512px">
<g>
	<path d="M459.955,135.556h-72.783c-3.846-51.076-46.633-91.459-98.676-91.459h-2.451C282.402,19.189,260.903,0,235,0   s-47.402,19.189-51.045,44.096h-2.451c-52.043,0-94.831,40.383-98.676,91.459H10.045c-4.143,0-7.5,3.358-7.5,7.5s3.357,7.5,7.5,7.5   h449.91c4.143,0,7.5-3.358,7.5-7.5S464.098,135.556,459.955,135.556z M235,15c17.609,0,32.351,12.502,35.821,29.096h-71.642   C202.649,27.502,217.391,15,235,15z M181.504,59.096h106.992c43.766,0,79.798,33.667,83.606,76.459H97.897   C101.706,92.763,137.738,59.096,181.504,59.096z" fill="#37373f"/>
	<path d="M377.312,165.571c-4.141-0.275-7.693,2.887-7.95,7.021l-10.451,168.36h-64.972l4.02-64.762   c0.129-2.066-0.603-4.093-2.021-5.601c-1.417-1.508-3.396-2.364-5.465-2.364H179.526c-2.069,0-4.048,0.855-5.465,2.364   c-1.418,1.508-2.149,3.535-2.021,5.601l4.02,64.762H111.09l-10.451-168.36c-0.257-4.134-3.821-7.292-7.95-7.021   c-4.134,0.256-7.277,3.816-7.021,7.95l10.393,167.431h-2.02c-4.143,0-7.5,3.358-7.5,7.5s3.357,7.5,7.5,7.5h3.632   c3.742,14.622,15.947,26.204,30.726,29.19V432.5c0,12.407-10.094,22.5-22.5,22.5c-4.143,0-7.5,3.358-7.5,7.5s3.357,7.5,7.5,7.5   c20.678,0,37.5-16.822,37.5-37.5v-46.606h183.201V432.5c0,20.678,16.822,37.5,37.5,37.5c4.143,0,7.5-3.358,7.5-7.5   s-3.357-7.5-7.5-7.5c-12.406,0-22.5-10.093-22.5-22.5v-47.358c14.78-2.987,26.984-14.568,30.726-29.19h3.632   c4.143,0,7.5-3.358,7.5-7.5s-3.357-7.5-7.5-7.5h-2.02l10.393-167.431C384.589,169.387,381.445,165.827,377.312,165.571z    M187.507,283.225h94.986l-3.583,57.727H191.09L187.507,283.225z M334.101,370.894H135.899c-9.651,0-18.528-6.314-22.386-14.942   h172.437c0.025,0,70.536,0,70.536,0C352.628,364.58,343.751,370.894,334.101,370.894z" fill="#37373f"/>
</g>
<g>
</g>
<g>
</g>
<g>
</g>
<g>
</g>
<g>
</g>
<g>
</g>
<g>
</g>
<g>
</g>
<g>
</g>
<g>
</g>
<g>
</g>
<g>
</g>
<g>
</g>
<g>
</g>
<g>
</g>
</svg>
